<svg id="Capa_1" enable-background="new 0 0 512 512" height="512" viewBox="0 0 512 512" width="512"
  xmlns="http://www.w3.org/2000/svg">
  <g>
    <path
      d="m241.026 264.906v25.023c-15.716 6.04-26.905 21.284-26.905 39.101 0 23.092 18.787 41.878 41.879 41.878h2.046c5.607.973 9.885 5.874 9.885 11.756 0 6.579-5.352 11.932-11.931 11.932s-11.932-5.353-11.932-11.932h-29.947c0 17.817 11.189 33.062 26.905 39.101v25.022h29.947v-25.022c15.716-6.04 26.905-21.284 26.905-39.101 0-23.092-18.786-41.878-41.878-41.878h-2.046c-5.608-.973-9.886-5.875-9.886-11.756 0-6.579 5.352-11.932 11.932-11.932s11.931 5.353 11.931 11.932h29.947c0-17.817-11.188-33.062-26.905-39.101v-25.023z"/>
    <path
      d="m256.09 118.954s-146.261 143.154-146.261 246.875c.001 80.599 65.572 146.171 146.171 146.171 80.598 0 146.17-65.572 146.17-146.17 0-101.444-146.08-246.876-146.08-246.876zm116.133 246.876c0 64.085-52.138 116.223-116.223 116.223-64.086 0-116.223-52.138-116.223-116.223 0-36.986 21.574-85.624 62.39-140.655 20.703-27.914 41.63-51.013 53.751-63.77 12.121 12.934 33.11 36.384 53.875 64.555 40.843 55.406 62.43 103.773 62.43 139.87z"/>
    <path
      d="m455.447 49.72c-16.581-22.462-44.111-49.72-44.111-49.72s-27.656 26.916-44.265 49.274c-23.295 31.363-35.106 59.091-35.106 82.416 0 43.716 35.565 79.281 79.28 79.281 43.716 0 79.281-35.565 79.281-79.281.001-22.856-11.802-50.435-35.079-81.97zm-44.201 131.305c-27.202 0-49.333-22.131-49.333-49.334 0-28.468 29.649-67.344 49.257-89.017 19.641 21.957 49.41 61.198 49.41 89.017 0 27.203-22.131 49.334-49.334 49.334z"/>
    <path
      d="m180.035 131.691c0-22.856-11.802-50.435-35.08-81.971-16.581-22.462-44.111-49.72-44.111-49.72s-27.656 26.916-44.264 49.274c-23.295 31.363-35.107 59.091-35.107 82.416 0 43.716 35.565 79.281 79.281 79.281 43.715.001 79.281-35.564 79.281-79.28zm-79.281 49.334c-27.203 0-49.333-22.131-49.333-49.334 0-28.468 29.649-67.344 49.257-89.017 19.641 21.957 49.409 61.198 49.409 89.017 0 27.203-22.131 49.334-49.333 49.334z"/>
  </g>
</svg>