<svg id="Capa_1" enable-background="new 0 0 512 512" height="512" viewBox="0 0 512 512" width="512"
  xmlns="http://www.w3.org/2000/svg">
  <g>
    <path
      d="m244.156 334.648h-3.887v-83.068h-79.207l-90.277 71.259h-70.785v189.161h91.002v-55.117l70.075 55.117h79.192v-79.182h3.887c27.065 0 49.085-22.02 49.085-49.085s-22.02-49.085-49.085-49.085zm-183.154 18.191v58.161h-31.002v-58.161zm-31.002 129.161v-41h31.002v41zm61.002-136.9 60.267-47.57v168.588l-60.267-47.404zm119.267 136.9h-29v-200.42h29zm33.887-79.182h-3.887v-38.17h3.887c10.523 0 19.085 8.562 19.085 19.085s-8.562 19.085-19.085 19.085z"/>
    <path
      d="m41.143 222.998h100.94v-105.771h41.144l-91.614-117.227-91.613 117.227h41.143zm50.47-174.279 30.094 38.508h-9.624v105.771h-40.94v-105.771h-9.623z"/>
    <path
      d="m353.262 172.54c7.846 0 15.363-6.899 15-15-.364-8.127-6.591-15-15-15-7.846 0-15.363 6.899-15 15 .364 8.127 6.591 15 15 15z"/>
    <path
      d="m425.1 214.378c-7.846 0-15.363 6.899-15 15 .364 8.127 6.591 15 15 15 7.846 0 15.363-6.899 15-15-.364-8.127-6.591-15-15-15z"/>
    <path d="m330.968 178.947h115.612v30h-115.612z"
      transform="matrix(.707 -.707 .707 .707 -23.272 331.71)"/>
    <path
      d="m269.547 80.879v225.935h150.923v44.186h24.436c36.995 0 67.094-30.099 67.094-67.095v-203.026zm212.453 203.026c0 18.562-13.707 33.985-31.53 36.679v-43.771h-150.923v-165.934h182.453z"/>
  </g>
</svg>