<svg id="Capa_1" enable-background="new 0 0 512 512" height="512" viewBox="0 0 512 512" width="512"
  xmlns="http://www.w3.org/2000/svg">
  <g>
    <path
      d="m477.868 406.015c-5.381-3.583-11.135-6.354-17.112-8.329 6.132-5.478 11.846-11.453 17.056-17.888 22.046-27.23 34.188-61.557 34.188-96.657 0-79.701-60.975-145.422-138.725-152.981v-42.4h56.813c31.04 0 56.292-25.252 56.292-56.292v-31.468h-86.757c-16.318 0-31.029 6.985-41.32 18.115-10.291-11.13-25.003-18.115-41.321-18.115h-86.757v31.467c0 31.04 25.253 56.292 56.292 56.292h56.78v42.4c-77.75 7.559-138.725 73.28-138.725 152.981 0 10.65 1.089 21.174 3.234 31.471-16.845 2.823-32.615 11.693-44.453 25.106l-163.353-.363v155.114h129.43v-29.613h70.34l107.346 47.145 204.677-42.2-3.776-18.822c-3.716-18.523-14.423-34.491-30.149-44.963zm-104.56-349.723c0-14.51 11.805-26.315 26.315-26.315h56.78v1.49c0 14.51-11.805 26.315-26.315 26.315h-56.78zm-86.79 1.49c-14.51 0-26.315-11.804-26.315-26.315v-1.49h56.78c14.51 0 26.315 11.804 26.315 26.315v1.49zm71.768 101.622c68.229 0 123.737 55.508 123.737 123.737 0 28.665-9.513 55.567-27.51 77.796-16.949 20.936-40.456 35.868-66.407 42.298l-31.789 6.675c2.89-19.909-7.681-39.532-26.559-47.392l-80.608-42.746-.621-.261c-3.108-1.306-6.279-2.376-9.496-3.248-2.974-10.732-4.485-21.834-4.485-33.121.001-68.23 55.509-123.738 123.738-123.738zm-328.309 209.926h69.476v95.16h-69.476zm280.445 111.381-104.359-45.834h-76.633v-65.183h48.78l4.487-6.22c8.971-12.436 22.691-19.86 36.702-19.86 5.839 0 11.535 1.107 16.939 3.292l80.812 42.855.797.312c7.004 2.745 10.57 11.081 7.951 18.584-1.372 3.928-4.138 7.015-7.79 8.693-3.162 1.452-6.633 1.648-9.844.571l-60.222-31.49-13.891 26.565 61.077 31.936.72.376.757.297c7.65 2.997 15.784 3.744 23.664 2.262l.044.211 110.297-23.159c10.656-2.121 21.499.026 30.544 6.047 6.036 4.019 10.79 9.446 13.923 15.776z"/>
    <path
      d="m360.348 320.992c-6.586 0-11.943-5.358-11.943-11.944h-29.977c0 17.835 11.2 33.094 26.932 39.14v25.047h29.977v-25.047c15.732-6.045 26.931-21.305 26.931-39.14 0-23.115-18.805-41.92-41.92-41.92h-2.048c-5.613-.974-9.896-5.88-9.896-11.768 0-6.586 5.358-11.943 11.943-11.943s11.943 5.357 11.943 11.943h29.977c0-17.835-11.2-33.094-26.931-39.139v-25.048h-29.976v25.048c-15.732 6.045-26.932 21.304-26.932 39.139 0 23.115 18.805 41.921 41.92 41.921h2.048c5.613.974 9.895 5.88 9.895 11.767 0 6.586-5.358 11.944-11.943 11.944z"/>
  </g>
</svg>